<?xml version="1.0" encoding="UTF-8"?><svg id="Layer_2" xmlns="http://www.w3.org/2000/svg" viewBox="0 0 1739.92 348.96"><defs><style>.cls-1{letter-spacing:0em;}.cls-2{letter-spacing:0em;}.cls-3{fill:none;stroke:#fff;stroke-miterlimit:10;stroke-width:15.64px;}.cls-4{letter-spacing:-.04em;}.cls-5{letter-spacing:-.02em;}.cls-6{fill:#fff;font-family:Kanit-SemiBold, Kanit;font-size:218.29px;font-weight:600;}.cls-7{letter-spacing:-.03em;}</style></defs><g id="Layer_1-2"><path class="cls-3" d="m211.1,7.86c-7.48-.23-14.96.45-22.39,1.35-19.42,2.42-38.17,8.12-56.06,16.17C74.97,51.49,24.89,104.98,15.37,166.99c-4.81,31.33-7.55,65.15-7.55,92.61,0,73.81,72.26,85.07,111.83-10.26,2.85-6.86,7-12.95,11.97-18.45-6.81-9.25-10.83-20.67-10.83-33.03,0-30.82,24.98-55.8,55.8-55.8,22.86,0,42.5,13.76,51.12,33.44,2.94-1.39,5.87-2.82,8.81-4.23,3.94-1.79,19.81-12.93,23.81-15.58C326.69,109.51,292.76,5.82,211.1,7.86Z"/><path class="cls-3" d="m215.36,181.07l-2.12.96c-2.95,1.1-5.5,2.51-8.3,3.54-1.14.44-2.8,1.29-3.95,1.77-1.74.65-3.64,1.55-5.38,2.34-.33.15-.65.29-.99.42l-.81.32c-.46.18-.91.38-1.35.59-6.3,3.05-12.58,5.53-18.91,9.32-14.52,8.31-30.44,17.84-41.93,30.56,10.16,13.8,26.51,22.77,44.96,22.77,30.82,0,55.8-24.98,55.8-55.8,0-7.95-1.67-15.51-4.67-22.35-3.37,1.59-6.76,3.14-10.2,4.57-.78.26-1.42.69-2.14,1Z"/><path class="cls-3" d="m176.58,142.06c-30.82,0-55.8,24.98-55.8,55.8,0,12.36,4.03,23.78,10.83,33.03,11.5-12.72,27.41-22.24,41.93-30.56,6.34-3.79,12.62-6.28,18.91-9.32.44-.21.89-.41,1.35-.59l.81-.32c.34-.13.66-.27.99-.42,1.74-.79,3.64-1.69,5.38-2.34,1.15-.48,2.81-1.33,3.95-1.77,2.8-1.03,5.35-2.44,8.3-3.54l2.12-.96c.72-.31,1.36-.74,2.14-1,3.44-1.42,6.83-2.97,10.2-4.57-8.62-19.68-28.26-33.44-51.12-33.44Z"/><path class="cls-3" d="m176.58,142.06c-30.82,0-55.8,24.95-55.8,55.73,0,12.35,4.03,23.75,10.83,32.99,11.5-12.7,27.41-22.22,41.93-30.52,6.34-3.79,12.62-6.27,18.91-9.31.44-.21.89-.41,1.35-.59l.81-.32c.34-.13.66-.27.99-.42,1.74-.79,3.64-1.69,5.38-2.33,1.15-.48,2.81-1.33,3.95-1.77,2.8-1.03,5.35-2.44,8.3-3.53l2.12-.96c.72-.31,1.36-.74,2.14-1,3.44-1.42,6.83-2.97,10.2-4.56-8.62-19.66-28.26-33.4-51.12-33.4Z"/><text class="cls-6" transform="translate(330.69 268.19)"><tspan x="0" y="0">Fl</tspan><tspan class="cls-4" x="182.92" y="0">a</tspan><tspan class="cls-7" x="295.56" y="0">v</tspan><tspan x="420.42" y="0">ia C</tspan><tspan class="cls-2" x="788.88" y="0">h</tspan><tspan x="917.44" y="0">on</tspan><tspan class="cls-5" x="1177.63" y="0">s</tspan><tspan class="cls-1" x="1278.91" y="0">o</tspan></text></g></svg>