<?xml version="1.0" standalone="no"?>
<svg version="1.2" xmlns="http://www.w3.org/2000/svg" xmlns:xlink="http://www.w3.org/1999/xlink" overflow="visible" preserveAspectRatio="none" viewBox="0 0 684 737" width="684" height="737"><g transform="translate(0, 0)"><defs><path id="path-169059580162547" d="M483.3867427125425 8.106432373139251 C465.59469985269766 7.562907320904615 447.8026341754995 9.171741342369039 430.1410962053371 11.324100569952034 C383.96444000998775 17.06372534962198 339.3755936514917 30.630112488342917 296.8312983149269 49.74045324197738 C159.67161551325773 111.81101254846598 40.608487672127275 238.9306378319653 17.966047996551463 386.3346386328259 C6.525198849413426 460.77583343603663 0 541.1740996350305 0 606.4405889025898 C0 781.8687400697027 171.83024466510625 808.6319083338743 265.9236084228713 582.0471819043684 C288.32679155405174 528.0860153819964 344.6175072105748 493.86564127001225 394.10026515195995 465.5588555544083 C409.1734741207301 456.55808097967645 424.1161636796839 450.6445226473573 439.0806199565886 443.40476911746265 C440.1246517491588 442.90472606033575 441.21220881005553 442.4264041254378 442.2997419516244 441.9915840771707 C442.2997419516244 441.9915840771707 444.2355496160619 441.23066890852414 444.2355496160619 441.23066890852414 C445.04032415119445 440.9262948779769 445.8016012914719 440.6001652551995 446.5846251845161 440.23056821579235 C450.7172510706203 438.3391010236489 455.2413664748254 436.2084880904668 459.3739923609296 434.66487698877154 C462.1145758569402 433.51260394023564 466.0514405191992 431.49068535253383 468.7485227310332 430.44711727556887 C475.4042254329766 428.0121250311908 481.4509257137331 424.64228043709585 488.47638984975436 422.0333600827004 C488.47638984975436 422.0333600827004 493.5225263684177 419.7505482284876 493.5225263684177 419.7505482284876 C495.2408287787684 419.0113541496733 496.7634003019824 417.9895350236319 498.61220669450717 417.3807869625374 C513.9246732448252 411.0541551679217 528.8238750025838 403.68393294267486 543.8100814030006 396.46592039413576 C553.1846169588663 392.22642488303643 590.9219815006943 365.74589922505874 600.42702090909 359.419267430443 C758.2498251033489 249.7141728778523 677.5766578159759 3.236447884383077 483.3867427125425 8.106432373139251 Z"/></defs><g transform="translate(0, -8)"><path style="stroke: rgb(140, 140, 140); stroke-width: 0; stroke-linecap: butt; stroke-linejoin: miter; fill: rgb(164, 199, 255);" d="M483.3867427125425 8.106432373139251 C465.59469985269766 7.562907320904615 447.8026341754995 9.171741342369039 430.1410962053371 11.324100569952034 C383.96444000998775 17.06372534962198 339.3755936514917 30.630112488342917 296.8312983149269 49.74045324197738 C159.67161551325773 111.81101254846598 40.608487672127275 238.9306378319653 17.966047996551463 386.3346386328259 C6.525198849413426 460.77583343603663 0 541.1740996350305 0 606.4405889025898 C0 781.8687400697027 171.83024466510625 808.6319083338743 265.9236084228713 582.0471819043684 C288.32679155405174 528.0860153819964 344.6175072105748 493.86564127001225 394.10026515195995 465.5588555544083 C409.1734741207301 456.55808097967645 424.1161636796839 450.6445226473573 439.0806199565886 443.40476911746265 C440.1246517491588 442.90472606033575 441.21220881005553 442.4264041254378 442.2997419516244 441.9915840771707 C442.2997419516244 441.9915840771707 444.2355496160619 441.23066890852414 444.2355496160619 441.23066890852414 C445.04032415119445 440.9262948779769 445.8016012914719 440.6001652551995 446.5846251845161 440.23056821579235 C450.7172510706203 438.3391010236489 455.2413664748254 436.2084880904668 459.3739923609296 434.66487698877154 C462.1145758569402 433.51260394023564 466.0514405191992 431.49068535253383 468.7485227310332 430.44711727556887 C475.4042254329766 428.0121250311908 481.4509257137331 424.64228043709585 488.47638984975436 422.0333600827004 C488.47638984975436 422.0333600827004 493.5225263684177 419.7505482284876 493.5225263684177 419.7505482284876 C495.2408287787684 419.0113541496733 496.7634003019824 417.9895350236319 498.61220669450717 417.3807869625374 C513.9246732448252 411.0541551679217 528.8238750025838 403.68393294267486 543.8100814030006 396.46592039413576 C553.1846169588663 392.22642488303643 590.9219815006943 365.74589922505874 600.42702090909 359.419267430443 C758.2498251033489 249.7141728778523 677.5766578159759 3.236447884383077 483.3867427125425 8.106432373139251 Z"/></g></g></svg>