<svg width="15" height="16" viewBox="0 0 15 16" fill="none" xmlns="http://www.w3.org/2000/svg">
<path fill-rule="evenodd" clip-rule="evenodd" d="M2.07551 15.957C2.21995 15.9859 2.3669 16 2.51573 16H2.5151C3.14812 16 3.81065 15.7422 4.42105 15.2505C5.19694 14.6256 5.88301 13.6297 6.40582 12.3705C6.43278 12.3056 6.46305 12.2416 6.49676 12.1783C7.08388 12.7089 7.8553 13.0133 8.65767 13.0133L8.65861 13.013C10.433 13.013 11.8764 11.5695 11.8764 9.79513C11.8764 9.48808 11.8336 9.18725 11.7489 8.8966L11.7751 8.88393C11.9368 8.80888 12.2439 8.6051 12.7853 8.23427L12.8035 8.22181C12.8838 8.16684 12.9496 8.12176 12.9897 8.09517L12.9991 8.08889C13.8491 7.49764 14.4488 6.68816 14.7336 5.74806C14.9967 4.88018 14.9826 3.95326 14.6925 3.0678C14.4011 2.17731 13.8597 1.41712 13.1272 0.869515C12.3369 0.278576 11.3682 -0.0209754 10.3264 0.00194625C9.9122 -0.00935758 9.51562 0.0305198 9.18059 0.0713392C8.23892 0.188459 7.27904 0.464775 6.32606 0.893379C4.83835 1.5669 3.49696 2.5698 2.44696 3.79407C1.32129 5.10625 0.603185 6.60181 0.3702 8.11904C0.135018 9.65133 0 11.307 0 12.6622C0 13.5232 0.190281 14.2828 0.55012 14.8589C0.920948 15.4524 1.44846 15.832 2.07551 15.957ZM10.43 8.44779C10.0306 7.87784 9.37374 7.52684 8.66093 7.52684C7.46995 7.52684 6.50096 8.49583 6.50096 9.68681C6.50096 9.96995 6.5551 10.2451 6.65973 10.5014C7.15019 10.0983 7.70533 9.76683 8.24445 9.45822C8.4812 9.31723 8.70854 9.21299 8.92833 9.11251C9.01971 9.07075 9.10606 9.03118 9.19272 8.98942C9.22726 8.97278 9.2618 8.95771 9.29539 8.94452L9.33433 8.92913C9.34187 8.92631 9.34877 8.92317 9.356 8.92003L9.39305 8.90307C9.46778 8.86885 9.55224 8.83023 9.63765 8.79757C9.65015 8.79202 9.66401 8.78561 9.67835 8.77898C9.68347 8.77661 9.68865 8.77422 9.69386 8.77182L9.70171 8.76817C9.74448 8.74826 9.78856 8.72773 9.83264 8.71028L9.84237 8.70651C9.89104 8.68861 9.94254 8.66506 10.0022 8.63775L10.0131 8.63281C10.0753 8.60452 10.1449 8.57291 10.222 8.54355L10.3231 8.49708L10.3249 8.49612C10.3486 8.48385 10.3843 8.46533 10.43 8.44779ZM9.30964 1.12134C9.57214 1.08931 9.87578 1.05791 10.1822 1.05791L10.1826 1.05728C10.2246 1.05728 10.267 1.05791 10.3091 1.05917H10.3235H10.338C11.1462 1.03876 11.8913 1.26609 12.4932 1.71605C13.0424 2.12675 13.4663 2.72334 13.6867 3.39623C13.909 4.07446 13.9207 4.78158 13.721 5.44066C13.5062 6.14903 13.0493 6.76321 12.399 7.21693C12.3597 7.24313 12.2995 7.28435 12.2267 7.3342C12.2139 7.3429 12.2008 7.35186 12.1874 7.36105L12.1705 7.37264C11.966 7.51253 11.4888 7.83894 11.3475 7.91494C10.7587 7.02225 9.75395 6.46868 8.66124 6.46868C6.88686 6.46868 5.44342 7.91211 5.44342 9.6865C5.44342 10.2366 5.58064 10.7666 5.84282 11.2401C5.67107 11.4734 5.53228 11.7159 5.42898 11.9648C4.4804 14.2501 3.16476 15.0957 2.2818 14.9195C1.52664 14.7691 1.05754 13.9659 1.05754 12.6622C1.05754 11.3585 1.18816 9.76123 1.41549 8.2798C1.61833 6.9582 2.2526 5.64538 3.24954 4.48297C4.19969 3.3752 5.41422 2.46744 6.76095 1.85766C7.61627 1.47301 8.4741 1.22527 9.30964 1.12134ZM8.65767 11.9554C8.12671 11.9554 7.61615 11.7567 7.22397 11.4097L7.2246 11.4094C7.67769 11.015 8.23409 10.6828 8.77479 10.3735L8.78358 10.3685C8.97166 10.2558 9.16477 10.1675 9.36886 10.0743L9.36887 10.0743L9.37298 10.0724C9.46432 10.0306 9.55838 9.98755 9.65366 9.94146C9.6634 9.93675 9.67282 9.93266 9.68161 9.92921L9.72054 9.91382C9.74629 9.90378 9.77047 9.89341 9.79465 9.88242L9.8339 9.86453C9.89889 9.8347 9.96577 9.80424 10.0188 9.78446L10.0396 9.77629C10.0667 9.76486 10.0941 9.75205 10.1212 9.73943C10.1284 9.7361 10.1355 9.73278 10.1426 9.72951C10.1664 9.7182 10.1984 9.70313 10.2141 9.69685C10.2965 9.6664 10.3721 9.63194 10.4391 9.60141L10.4412 9.60046L10.4474 9.59762C10.5038 9.57197 10.5574 9.54763 10.6088 9.52855L10.7407 9.47015C10.7592 9.46198 10.7759 9.45382 10.7897 9.44691C10.8082 9.56152 10.8176 9.6777 10.8176 9.79545C10.8176 10.9864 9.84865 11.9554 8.65767 11.9554Z" fill="#294677"/>
</svg>
