<svg height="633.7757315390295" overflow="visible" viewBox="0 0 702.3124865026809 633.7757315390295" width="702.3124865026809" xmlns="http://www.w3.org/2000/svg"><g><defs><path id="path-16905985770046" d="M392.22169913079074 6.694960731519823 C377.7851731260924 6.256895764047134 363.3486286073133 7.553567960451293 349.0179947280149 9.28830524835401 C311.5500938677531 13.91427148868501 275.3705474803774 24.848374555713818 240.8499569660595 40.25073874521024 C129.5581090787398 90.2777566937234 32.94986938308575 192.73238005654378 14.57771438316678 311.53560458261103 C5.294569241848617 371.5329854687802 0 436.3315880769245 0 488.93443017316605 C0 630.3242833526307 139.4236634344065 651.8945980730078 215.7713489396108 469.2740722940026 C233.9493703399108 425.7829828580612 279.6238545348966 398.20238282750677 319.77433795224795 375.3879585194083 C332.0047925979613 368.1336028920124 344.1293433365864 363.3674514002926 356.2715556665307 357.53242616724293 C357.1186867262913 357.1294063898572 358.0011343414926 356.7438931885961 358.88356254846775 356.39344120939563 C358.88356254846775 356.39344120939563 360.4542836796999 355.7801662973523 360.4542836796999 355.7801662973523 C361.10728056127664 355.5348499145233 361.7249835040454 355.2719991737766 362.3603318383137 354.9741149927623 C365.71355898274084 353.4496488976024 369.38444209580194 351.7324384738429 372.7376692402283 350.4883340038202 C374.9613883049736 349.5596363229113 378.15577410549105 347.93003029700236 380.3441960756195 347.0889455782537 C385.74465660131915 345.1264145156216 390.6509704256173 342.4104203651563 396.35145667633634 340.3077084377335 C396.35145667633634 340.3077084377335 400.4459095533217 338.46783022687544 400.4459095533217 338.46783022687544 C401.84014615821184 337.87206186484593 403.07556603450354 337.0485061513194 404.5756940284383 336.5578733856615 C417.0002831153194 331.45879701388196 429.0895476994653 325.518617906967 441.2494081559437 319.7011152559048 C448.8559391990807 316.2842084260643 479.47616920012536 294.94169520918587 487.188591527113 289.842618837406 C615.2465686145598 201.42358740696008 549.7880776138412 2.769898606253653 392.22169913079074 6.694960731519823 Z" vector-effect="non-scaling-stroke"/></defs> <path style="stroke: rgb(140, 140, 140); stroke-width: 0; stroke-linecap: butt; stroke-linejoin: miter; fill: rgb(164, 199, 255);" d="M392.22169913079074 0.08578131566446245 C377.7851731260924 -0.35228365180864785 363.3486286073133 0.9443885445957676 349.0179947280149 2.6791258324983573 C311.5500938677531 7.305092072829211 275.3705474803774 18.23919513985811 240.8499569660595 33.64155932935455 C129.5581090787398 83.66857727786783 32.94986938308574 186.12320064068808 14.577714383166779 304.9264251667555 C5.294569241848649 364.92380605292465 0 429.72240866106904 0 482.32525075731064 C0 623.715103936775 139.4236634344065 645.2854186571521 215.7713489396108 462.66489287814693 C233.94937033991084 419.17380344220555 279.6238545348966 391.5932034116513 319.77433795224795 368.77877910355255 C332.0047925979613 361.5244234761567 344.1293433365864 356.7582719844372 356.2715556665307 350.9232467513875 C357.1186867262913 350.5202269740016 358.0011343414926 350.1347137727407 358.88356254846775 349.7842617935403 C358.88356254846775 349.7842617935403 360.4542836796999 349.1709868814969 360.4542836796999 349.1709868814969 C361.10728056127664 348.92567049866784 361.7249835040454 348.66281975792117 362.3603318383137 348.36493557690665 C365.71355898274084 346.8404694817468 369.38444209580194 345.1232590579875 372.7376692402283 343.8791545879649 C374.9613883049736 342.9504569070559 378.15577410549105 341.3208508811467 380.3441960756195 340.47976616239794 C385.74465660131915 338.5172350997659 390.6509704256173 335.8012409493008 396.35145667633634 333.69852902187813 C396.35145667633634 333.69852902187813 400.4459095533217 331.85865081101974 400.4459095533217 331.85865081101974 C401.84014615821184 331.26288244899024 403.07556603450354 330.43932673546396 404.5756940284383 329.94869396980584 C417.0002831153194 324.84961759802627 429.0895476994653 318.90943849111136 441.2494081559437 313.09193584004925 C448.8559391990807 309.6750290102086 479.47616920012536 288.33251579333046 487.188591527113 283.23343942155043 C615.2465686145598 194.81440799110442 549.7880776138412 -3.83928080960186 392.22169913079074 0.08578131566446245 Z" vector-effect="non-scaling-stroke"/></g><g><defs><path id="path-16905985770034" d="M433.27224591548264 370.6565713484536 C433.27224591548264 429.68910122885075 385.07290308640705 477.54445048665053 325.6160026641422 477.54445048665053 C266.15910224187746 477.54445048665053 217.95975941280173 429.68910122885075 217.95975941280173 370.6565713484536 C217.95975941280173 311.62404146805665 266.15910224187746 263.76871894762075 325.6160026641422 263.76871894762075 C385.07290308640705 263.76871894762075 433.27224591548264 311.62404146805665 433.27224591548264 370.6565713484536 Z" vector-effect="non-scaling-stroke"/></defs> <path style="stroke: rgb(140, 140, 140); stroke-width: 0; stroke-linecap: butt; stroke-linejoin: miter; fill: rgb(231, 132, 119);" d="M702.3124865026809 526.8878524008328 C702.3124865026809 585.9203822812296 654.1131436736052 633.7757315390295 594.6562432513404 633.7757315390295 C535.1993428290757 633.7757315390295 487 585.9203822812296 487 526.8878524008328 C487 467.8553225204355 535.1993428290757 420 594.6562432513404 420 C654.1131436736052 420 702.3124865026809 467.8553225204355 702.3124865026809 526.8878524008328 Z" vector-effect="non-scaling-stroke"/></g></svg>